#!OML:ASF I:\Random Stuff\random\construction\7_22_03\Session 2\subj1.ASF
:FULLY-SPECIFIED
:DEGREES
462
root 5.48924 17.6622 -7.27905 6.75307 -52.6952 -1.95476
lowerback -0.644523 1.22955 0.66657
upperback -0.412206 1.63482 0.392949
thorax -0.0534471 0.81619 0.0382545
lowerneck -13.0461 -6.42609 -8.14284
upperneck 17.5966 -8.9382 8.50118
head 8.37029 -4.02139 3.15128
rclavicle 2.10898e-015 5.81445e-015
rhumerus 19.5023 21.15 -63.4499
rradius 126.047
rwrist 3.24158
rhand -29.1114 31.0838
rfingers 7.12502
rthumb -2.45934 1.11821
lclavicle 2.10898e-015 5.81445e-015
lhumerus -33.7916 -8.38904 87.8949
lradius 34.3626
lwrist 20.1705
lhand -27.3245 65.7313
lfingers 7.12502
lthumb -0.733542 264.29
rfemur 3.04532 11.0764 23.1441
rtibia 2.3145
rfoot -8.59043 -39.509
rtoes 12.0289
lfemur -12.4204 -15.2095 -14.5675
ltibia 21.8828
lfoot -13.776 21.7641
ltoes -24.1686
463
root 5.49533 17.6633 -7.28272 6.73853 -52.6398 -1.9135
lowerback -0.638993 1.27721 0.672077
upperback -0.455999 1.69872 0.343941
thorax -0.0994316 0.847901 -0.0153072
lowerneck -13.2035 -6.54177 -8.16244
upperneck 17.483 -9.05213 8.41439
head 8.36793 -4.07986 3.10608
rclavicle 3.29858e-014 1.44119e-015
rhumerus 20.3222 20.2195 -63.2967
rradius 125.663
rwrist 3.15595
rhand -29.1759 31.5717
rfingers 7.12502
rthumb -2.52162 1.60687
lclavicle 3.29858e-014 1.44119e-015
lhumerus -33.7181 -8.66366 87.975
lradius 35.0789
lwrist 20.176
lhand -26.6105 65.4134
lfingers 7.12502
lthumb -0.043903 264.607
rfemur 3.16723 10.9816 23.0949
rtibia 1.99473
rfoot -8.48328 -39.4342
rtoes 12.4196
lfemur -12.4999 -15.32 -14.5767
ltibia 21.9323
lfoot -13.7853 21.8059
ltoes -23.9481
464
root 5.50086 17.6633 -7.28725 6.77927 -52.5973 -1.96128
lowerback -0.599468 1.37062 0.723116
upperback -0.526657 1.82385 0.288661
thorax -0.189827 0.909866 -0.101785
lowerneck -13.1984 -6.65575 -8.1504
upperneck 17.2127 -9.18614 8.40536
head 8.28789 -4.14498 3.08338
rclavicle 6.84953e-015 4.21796e-015
rhumerus 20.9749 19.2372 -63.1365
rradius 125.37
rwrist 2.92373
rhand -29.0011 32.3904
rfingers 7.12502
rthumb -2.35274 2.42363
lclavicle 6.84953e-015 4.21796e-015
lhumerus -33.7187 -9.32797 88.2184
lradius 35.9608
lwrist 21.0987
lhand -26.5164 65.6346
lfingers 7.12502
lthumb 0.0469729 264.386
rfemur 3.33782 10.9058 23.1086
rtibia 1.63423
rfoot -8.58954 -39.3543
rtoes 13.309
lfemur -12.5631 -15.2972 -14.5345
ltibia 21.9845
lfoot -13.7588 21.7473
ltoes -24.008
465
root 5.50723 17.6634 -7.29296 6.8742 -52.536 -2.05821
lowerback -0.557966 1.39186 0.756739
upperback -0.583684 1.85276 0.310161
thorax -0.270866 0.923829 -0.100531
lowerneck -13.2764 -6.73838 -8.2099
upperneck 16.8914 -9.24178 8.3609
head 8.20059 -4.17855 3.06849
rclavicle -7.90713e-014 -1.86361e-015
rhumerus 21.8049 18.4764 -62.823
rradius 125.111
rwrist 2.6644
rhand -29.0348 33.0572
rfingers 7.12502
rthumb -2.38533 3.09076
lclavicle -7.90713e-014 -1.86361e-015
lhumerus -33.5883 -9.37781 88.2266
lradius 36.4453
lwrist 21.0061
lhand -25.7986 65.1268
lfingers 7.12502
lthumb 0.740229 264.895
rfemur 3.62712 10.8191 23.1439
rtibia 1.00558
rfoot -8.52191 -39.273
rtoes 13.9264
lfemur -12.6657 -15.2274 -14.4473
ltibia 22.052
lfoot -13.7183 21.6432
ltoes -24.2949
466
root 5.51306 17.6636 -7.29987 6.99331 -52.4572 -2.13327
lowerback -0.550882 1.38195 0.754003
upperback -0.645608 1.83994 0.348755
thorax -0.33964 0.917093 -0.0608129
lowerneck -13.4108 -6.83917 -8.33136
upperneck 16.6063 -9.31397 8.3437
head 8.1416 -4.21921 3.0692
rclavicle -4.28373e-014 2.72087e-015
rhumerus 22.6905 17.8292 -62.4914
rradius 124.869
rwrist 2.43354
rhand -28.9122 33.6402
rfingers 7.12502
rthumb -2.26688 3.67253
lclavicle -4.28373e-014 2.72087e-015
lhumerus -33.4847 -9.46112 88.3519
lradius 37.0903
lwrist 21.4377
lhand -25.7793 65.1009
lfingers 7.12502
lthumb 0.758949 264.921
rfemur 4.04997 10.7205 23.1378
rtibia 1.11319e-014
rfoot -8.06116 -39.2055
rtoes 14.3535
lfemur -12.8407 -15.1642 -14.3437
ltibia 22.1461
lfoot -13.6889 21.5024
ltoes -24.6795
467
root 5.51714 17.6633 -7.30535 7.11479 -52.3929 -2.22618
lowerback -0.541967 1.40827 0.814114
upperback -0.701086 1.87525 0.351193
thorax -0.399339 0.934118 -0.0929695
lowerneck -13.587 -6.99863 -8.42289
upperneck 16.3998 -9.47803 8.32759
head 8.12318 -4.29956 3.05229
rclavicle 2.80861e-014 8.07563e-015
rhumerus 23.4802 17.1184 -62.2544
rradius 124.624
rwrist 2.32644
rhand -28.4888 34.1035
rfingers 7.12502
rthumb -1.85803 4.1318
lclavicle 2.80861e-014 8.07563e-015
lhumerus -33.3464 -9.56617 88.4006
lradius 37.5523
lwrist 21.4919
lhand -25.5463 64.9483
lfingers 7.12502
lthumb 0.983934 265.074
rfemur 3.99169 10.6246 23.1985
rtibia 6.36111e-015
rfoot -8.26363 -39.1449
rtoes 15.092
lfemur -12.9926 -15.1838 -14.2328
ltibia 22.2453
lfoot -13.7126 21.4446
ltoes -24.8449
468
root 5.51953 17.6626 -7.30856 7.21978 -52.3524 -2.32576
lowerback -0.55018 1.42353 0.889169
upperback -0.729298 1.89544 0.361669
thorax -0.421394 0.943684 -0.124397
lowerneck -13.8055 -7.15134 -8.51576
upperneck 16.1656 -9.62588 8.31083
head 8.1017 -4.37121 3.03616
rclavicle 3.91909e-014 1.07219e-014
rhumerus 24.3072 16.4838 -62.0225
rradius 124.355
rwrist 2.37485
rhand -28.2385 34.2527
rfingers 7.12502
rthumb -1.61621 4.27906
lclavicle 3.91909e-014 1.07219e-014
lhumerus -33.2877 -9.87243 88.579
lradius 38.1832
lwrist 22.3316
lhand -26.1426 65.4199
lfingers 7.12502
lthumb 0.407972 264.601
rfemur 3.96765 10.552 23.2639
rtibia -3.18055e-014
rfoot -8.54455 -39.056
rtoes 15.8413
lfemur -13.1012 -15.1724 -14.1423
ltibia 22.3344
lfoot -13.7344 21.4164
ltoes -24.8623
469
root 5.52167 17.6618 -7.31128 7.28876 -52.3041 -2.38718
lowerback -0.568915 1.41305 0.911206
upperback -0.751987 1.8813 0.374806
thorax -0.433976 0.93639 -0.123183
lowerneck -14.0465 -7.20163 -8.51674
upperneck 15.8916 -9.63162 8.22241
head 8.04947 -4.37621 2.9996
rclavicle 2.81995e-014 3.62782e-015
rhumerus 25.1662 15.9237 -61.7463
rradius 124.087
rwrist 2.33655
rhand -28.2411 34.3219
rfingers 7.12502
rthumb -1.61873 4.34827
lclavicle 2.81995e-014 3.62782e-015
lhumerus -33.1701 -9.78109 88.5224
lradius 38.5127
lwrist 21.9325
lhand -25.1485 64.8158
lfingers 7.12502
lthumb 1.36817 265.209
rfemur 3.95198 10.4687 23.3028
rtibia -4.77083e-015
rfoot -8.74132 -38.9371
rtoes 16.4224
lfemur -13.2031 -15.0635 -14.0869
ltibia 22.4231
lfoot -13.6714 21.2986
ltoes -24.9148
470
root 5.52566 17.6614 -7.31476 7.32188 -52.2252 -2.42367
lowerback -0.555542 1.38853 0.931716
upperback -0.767523 1.84881 0.369939
thorax -0.456843 0.919889 -0.140318
lowerneck -14.3095 -7.22245 -8.48374
upperneck 15.6203 -9.5946 8.09266
head 7.99414 -4.3621 2.94909
rclavicle 5.12336e-014 -4.20554e-015
rhumerus 26.0035 15.3567 -61.5056
rradius 123.835
rwrist 2.07175
rhand -28.0745 34.616
rfingers 7.12502
rthumb -1.45782 4.64127
lclavicle 5.12336e-014 -4.20554e-015
lhumerus -33.0126 -9.64383 88.421
lradius 38.6974
lwrist 21.2507
lhand -24.3662 64.3839
lfingers 7.12502
lthumb 2.12366 265.647
rfemur 3.94841 10.3524 23.3292
rtibia -1.27222e-014
rfoot -8.84276 -38.8675
rtoes 16.7583
lfemur -13.2871 -14.9802 -14.0506
ltibia 22.5035
lfoot -13.6772 21.1616
ltoes -24.6411
471
root 5.52978 17.6612 -7.31755 7.35625 -52.1586 -2.4688
lowerback -0.554189 1.36499 0.966314
upperback -0.771063 1.81737 0.366465
thorax -0.460329 0.903949 -0.163367
lowerneck -14.6513 -7.2993 -8.4591
upperneck 15.4684 -9.63259 7.9387
head 7.99791 -4.38315 2.87955
rclavicle -1.46422e-014 7.83802e-015
rhumerus 26.7415 14.8563 -61.3745
rradius 123.646
rwrist 1.79071
rhand -27.7286 35.0748
rfingers 7.12502
rthumb -1.12375 5.09801
lclavicle -1.46422e-014 7.83802e-015
lhumerus -32.8801 -9.68274 88.4305
lradius 38.9432
lwrist 21.1726
lhand -24.4513 64.3836
lfingers 7.12502
lthumb 2.04149 265.646
rfemur 3.94744 10.2484 23.3617
rtibia -9.54166e-015
rfoot -8.92682 -38.8217
rtoes 16.7714
lfemur -13.3418 -14.9964 -14.0139
ltibia 22.5613
lfoot -13.6688 21.1361
ltoes -24.7581
